<mxfile host="Electron" modified="2023-05-02T19:28:26.795Z" agent="Mozilla/5.0 (Windows NT 10.0; Win64; x64) AppleWebKit/537.36 (KHTML, like Gecko) draw.io/21.2.1 Chrome/112.0.5615.87 Electron/24.1.2 Safari/537.36" etag="97BraRg4Ullhpu1O2Dfa" version="21.2.1" type="device" pages="2">
  <diagram id="rCp6mN5NjbrYEUi9OHhO" name="Концептуальная схема">
    <mxGraphModel dx="1290" dy="1798" grid="1" gridSize="10" guides="1" tooltips="1" connect="1" arrows="1" fold="1" page="1" pageScale="1" pageWidth="827" pageHeight="1169" math="0" shadow="0">
      <root>
        <mxCell id="0" />
        <mxCell id="1" parent="0" />
        <mxCell id="lpnK_0vvP0XSjghe2U8a-1" value="поставщик" style="rounded=0;whiteSpace=wrap;html=1;" parent="1" vertex="1">
          <mxGeometry x="100" y="240" width="120" height="60" as="geometry" />
        </mxCell>
        <mxCell id="lpnK_0vvP0XSjghe2U8a-2" value="поставка" style="rounded=0;whiteSpace=wrap;html=1;" parent="1" vertex="1">
          <mxGeometry x="380" y="240" width="120" height="60" as="geometry" />
        </mxCell>
        <mxCell id="lpnK_0vvP0XSjghe2U8a-4" value="email" style="ellipse;whiteSpace=wrap;html=1;rounded=0;" parent="1" vertex="1">
          <mxGeometry x="160" y="170" width="60" height="50" as="geometry" />
        </mxCell>
        <mxCell id="lpnK_0vvP0XSjghe2U8a-8" value="id поставщика" style="ellipse;whiteSpace=wrap;html=1;rounded=0;" parent="1" vertex="1">
          <mxGeometry x="160" y="320" width="90" height="50" as="geometry" />
        </mxCell>
        <mxCell id="lpnK_0vvP0XSjghe2U8a-10" value="название компании" style="ellipse;whiteSpace=wrap;html=1;rounded=0;" parent="1" vertex="1">
          <mxGeometry x="70" y="320" width="80" height="50" as="geometry" />
        </mxCell>
        <mxCell id="lpnK_0vvP0XSjghe2U8a-11" value="адрес" style="ellipse;whiteSpace=wrap;html=1;rounded=0;" parent="1" vertex="1">
          <mxGeometry x="90" y="170" width="60" height="50" as="geometry" />
        </mxCell>
        <mxCell id="lpnK_0vvP0XSjghe2U8a-19" value="производит" style="rhombus;whiteSpace=wrap;html=1;rounded=0;" parent="1" vertex="1">
          <mxGeometry x="270" y="230" width="80" height="80" as="geometry" />
        </mxCell>
        <mxCell id="lpnK_0vvP0XSjghe2U8a-21" value="1" style="text;html=1;align=center;verticalAlign=middle;resizable=0;points=[];autosize=1;strokeColor=none;fillColor=none;" parent="1" vertex="1">
          <mxGeometry x="220" y="270" width="30" height="30" as="geometry" />
        </mxCell>
        <mxCell id="JMcGNKBuhodXfzZp6lYc-4" value="id поставки" style="ellipse;whiteSpace=wrap;html=1;rounded=0;" parent="1" vertex="1">
          <mxGeometry x="520" y="209" width="60" height="50" as="geometry" />
        </mxCell>
        <mxCell id="JMcGNKBuhodXfzZp6lYc-6" value="обеспечивает" style="rhombus;whiteSpace=wrap;html=1;rounded=0;" parent="1" vertex="1">
          <mxGeometry x="390" y="60" width="100" height="80" as="geometry" />
        </mxCell>
        <mxCell id="JMcGNKBuhodXfzZp6lYc-9" value="включает&amp;nbsp;&lt;br&gt;в себя" style="rhombus;whiteSpace=wrap;html=1;rounded=0;" parent="1" vertex="1">
          <mxGeometry x="400" y="330" width="80" height="80" as="geometry" />
        </mxCell>
        <mxCell id="JMcGNKBuhodXfzZp6lYc-11" value="состав поставки" style="whiteSpace=wrap;html=1;rounded=0;" parent="1" vertex="1">
          <mxGeometry x="380" y="440" width="120" height="60" as="geometry" />
        </mxCell>
        <mxCell id="JMcGNKBuhodXfzZp6lYc-14" value="описание" style="ellipse;whiteSpace=wrap;html=1;rounded=0;" parent="1" vertex="1">
          <mxGeometry x="515" y="520" width="70" height="50" as="geometry" />
        </mxCell>
        <mxCell id="JMcGNKBuhodXfzZp6lYc-15" value="еденица&lt;br&gt;измерения" style="ellipse;whiteSpace=wrap;html=1;rounded=0;" parent="1" vertex="1">
          <mxGeometry x="430" y="534.5" width="70" height="50" as="geometry" />
        </mxCell>
        <mxCell id="JMcGNKBuhodXfzZp6lYc-18" value="включает" style="rhombus;whiteSpace=wrap;html=1;rounded=0;" parent="1" vertex="1">
          <mxGeometry x="560" y="430" width="80" height="80" as="geometry" />
        </mxCell>
        <mxCell id="JMcGNKBuhodXfzZp6lYc-20" value="N" style="text;html=1;align=center;verticalAlign=middle;resizable=0;points=[];autosize=1;strokeColor=none;fillColor=none;" parent="1" vertex="1">
          <mxGeometry x="349" y="272" width="30" height="30" as="geometry" />
        </mxCell>
        <mxCell id="JMcGNKBuhodXfzZp6lYc-21" value="сотрудник(агент)" style="whiteSpace=wrap;html=1;rounded=0;" parent="1" vertex="1">
          <mxGeometry x="380" y="-60" width="120" height="60" as="geometry" />
        </mxCell>
        <mxCell id="JMcGNKBuhodXfzZp6lYc-24" value="id сотрудника" style="ellipse;whiteSpace=wrap;html=1;rounded=0;" parent="1" vertex="1">
          <mxGeometry x="310" y="-140" width="69" height="50" as="geometry" />
        </mxCell>
        <mxCell id="JMcGNKBuhodXfzZp6lYc-25" value="email" style="ellipse;whiteSpace=wrap;html=1;rounded=0;" parent="1" vertex="1">
          <mxGeometry x="480" y="-140" width="60" height="50" as="geometry" />
        </mxCell>
        <mxCell id="JMcGNKBuhodXfzZp6lYc-26" value="должность" style="ellipse;whiteSpace=wrap;html=1;rounded=0;" parent="1" vertex="1">
          <mxGeometry x="394" y="-140" width="70" height="50" as="geometry" />
        </mxCell>
        <mxCell id="JMcGNKBuhodXfzZp6lYc-34" value="название" style="ellipse;whiteSpace=wrap;html=1;rounded=0;" parent="1" vertex="1">
          <mxGeometry x="360" y="535" width="60" height="50" as="geometry" />
        </mxCell>
        <mxCell id="JMcGNKBuhodXfzZp6lYc-35" value="количество" style="ellipse;whiteSpace=wrap;html=1;rounded=0;" parent="1" vertex="1">
          <mxGeometry x="265" y="484.5" width="75" height="50" as="geometry" />
        </mxCell>
        <mxCell id="JMcGNKBuhodXfzZp6lYc-39" value="товар" style="rounded=0;whiteSpace=wrap;html=1;" parent="1" vertex="1">
          <mxGeometry x="815" y="240" width="120" height="60" as="geometry" />
        </mxCell>
        <mxCell id="JMcGNKBuhodXfzZp6lYc-41" value="цена" style="ellipse;whiteSpace=wrap;html=1;rounded=0;" parent="1" vertex="1">
          <mxGeometry x="715" y="220" width="60" height="50" as="geometry" />
        </mxCell>
        <mxCell id="JMcGNKBuhodXfzZp6lYc-43" value="адрес&lt;br&gt;хранения" style="ellipse;whiteSpace=wrap;html=1;rounded=0;" parent="1" vertex="1">
          <mxGeometry x="950" y="345" width="60" height="50" as="geometry" />
        </mxCell>
        <mxCell id="JMcGNKBuhodXfzZp6lYc-45" value="категория" style="rounded=0;whiteSpace=wrap;html=1;" parent="1" vertex="1">
          <mxGeometry x="815" y="460" width="120" height="60" as="geometry" />
        </mxCell>
        <mxCell id="JMcGNKBuhodXfzZp6lYc-46" value="относится" style="rhombus;whiteSpace=wrap;html=1;rounded=0;" parent="1" vertex="1">
          <mxGeometry x="835" y="350" width="80" height="80" as="geometry" />
        </mxCell>
        <mxCell id="JMcGNKBuhodXfzZp6lYc-49" value="id категории" style="ellipse;whiteSpace=wrap;html=1;rounded=0;" parent="1" vertex="1">
          <mxGeometry x="795" y="559" width="60" height="50" as="geometry" />
        </mxCell>
        <mxCell id="JMcGNKBuhodXfzZp6lYc-50" value="название" style="ellipse;whiteSpace=wrap;html=1;rounded=0;" parent="1" vertex="1">
          <mxGeometry x="880" y="559" width="60" height="50" as="geometry" />
        </mxCell>
        <mxCell id="JMcGNKBuhodXfzZp6lYc-53" value="1" style="text;html=1;align=center;verticalAlign=middle;resizable=0;points=[];autosize=1;strokeColor=none;fillColor=none;" parent="1" vertex="1">
          <mxGeometry x="501" y="440" width="30" height="30" as="geometry" />
        </mxCell>
        <mxCell id="JMcGNKBuhodXfzZp6lYc-54" value="N" style="text;html=1;align=center;verticalAlign=middle;resizable=0;points=[];autosize=1;strokeColor=none;fillColor=none;" parent="1" vertex="1">
          <mxGeometry x="815" y="302" width="30" height="30" as="geometry" />
        </mxCell>
        <mxCell id="JMcGNKBuhodXfzZp6lYc-55" value="заказ" style="rounded=0;whiteSpace=wrap;html=1;" parent="1" vertex="1">
          <mxGeometry x="815" y="20" width="120" height="60" as="geometry" />
        </mxCell>
        <mxCell id="JMcGNKBuhodXfzZp6lYc-56" value="клиент" style="rounded=0;whiteSpace=wrap;html=1;" parent="1" vertex="1">
          <mxGeometry x="815" y="-240" width="120" height="60" as="geometry" />
        </mxCell>
        <mxCell id="JMcGNKBuhodXfzZp6lYc-57" value="заказывает" style="rhombus;whiteSpace=wrap;html=1;rounded=0;" parent="1" vertex="1">
          <mxGeometry x="825" y="-125" width="100" height="80" as="geometry" />
        </mxCell>
        <mxCell id="JMcGNKBuhodXfzZp6lYc-60" value="" style="rhombus;whiteSpace=wrap;html=1;rounded=0;" parent="1" vertex="1">
          <mxGeometry x="825" y="110" width="100" height="80" as="geometry" />
        </mxCell>
        <mxCell id="JMcGNKBuhodXfzZp6lYc-69" value="относится" style="rhombus;whiteSpace=wrap;html=1;rounded=0;" parent="1" vertex="1">
          <mxGeometry x="650" y="10" width="100" height="80" as="geometry" />
        </mxCell>
        <mxCell id="JMcGNKBuhodXfzZp6lYc-70" value="корзина" style="rounded=0;whiteSpace=wrap;html=1;" parent="1" vertex="1">
          <mxGeometry x="640" y="-72.5" width="120" height="60" as="geometry" />
        </mxCell>
        <mxCell id="JMcGNKBuhodXfzZp6lYc-73" value="id товара" style="ellipse;whiteSpace=wrap;html=1;rounded=0;" parent="1" vertex="1">
          <mxGeometry x="960" y="180" width="60" height="50" as="geometry" />
        </mxCell>
        <mxCell id="JMcGNKBuhodXfzZp6lYc-75" value="название" style="ellipse;whiteSpace=wrap;html=1;rounded=0;" parent="1" vertex="1">
          <mxGeometry x="990" y="240" width="60" height="50" as="geometry" />
        </mxCell>
        <mxCell id="JMcGNKBuhodXfzZp6lYc-76" value="описание" style="ellipse;whiteSpace=wrap;html=1;rounded=0;" parent="1" vertex="1">
          <mxGeometry x="1000" y="300" width="60" height="50" as="geometry" />
        </mxCell>
        <mxCell id="JMcGNKBuhodXfzZp6lYc-77" value="количество" style="ellipse;whiteSpace=wrap;html=1;rounded=0;" parent="1" vertex="1">
          <mxGeometry x="720" y="290" width="70" height="50" as="geometry" />
        </mxCell>
        <mxCell id="JMcGNKBuhodXfzZp6lYc-86" value="id заказа" style="ellipse;whiteSpace=wrap;html=1;rounded=0;" parent="1" vertex="1">
          <mxGeometry x="915" y="-55" width="60" height="50" as="geometry" />
        </mxCell>
        <mxCell id="JMcGNKBuhodXfzZp6lYc-87" value="дата заказа" style="ellipse;whiteSpace=wrap;html=1;rounded=0;" parent="1" vertex="1">
          <mxGeometry x="990" y="-38" width="60" height="50" as="geometry" />
        </mxCell>
        <mxCell id="JMcGNKBuhodXfzZp6lYc-88" value="сумма" style="ellipse;whiteSpace=wrap;html=1;rounded=0;" parent="1" vertex="1">
          <mxGeometry x="1010" y="20" width="60" height="50" as="geometry" />
        </mxCell>
        <mxCell id="JMcGNKBuhodXfzZp6lYc-89" value="статус" style="ellipse;whiteSpace=wrap;html=1;rounded=0;" parent="1" vertex="1">
          <mxGeometry x="971" y="82" width="60" height="50" as="geometry" />
        </mxCell>
        <mxCell id="JMcGNKBuhodXfzZp6lYc-94" value="id клиента" style="ellipse;whiteSpace=wrap;html=1;rounded=0;" parent="1" vertex="1">
          <mxGeometry x="710" y="-310" width="70" height="50" as="geometry" />
        </mxCell>
        <mxCell id="JMcGNKBuhodXfzZp6lYc-95" value="фио" style="ellipse;whiteSpace=wrap;html=1;rounded=0;" parent="1" vertex="1">
          <mxGeometry x="795" y="-340" width="60" height="50" as="geometry" />
        </mxCell>
        <mxCell id="JMcGNKBuhodXfzZp6lYc-96" value="email" style="ellipse;whiteSpace=wrap;html=1;rounded=0;" parent="1" vertex="1">
          <mxGeometry x="875" y="-340" width="60" height="50" as="geometry" />
        </mxCell>
        <mxCell id="JMcGNKBuhodXfzZp6lYc-97" value="адрес" style="ellipse;whiteSpace=wrap;html=1;rounded=0;" parent="1" vertex="1">
          <mxGeometry x="960" y="-300" width="60" height="50" as="geometry" />
        </mxCell>
        <mxCell id="FTU88djpEqcu1WmclJpu-1" value="" style="endArrow=none;html=1;rounded=0;exitX=0.158;exitY=0.019;exitDx=0;exitDy=0;entryX=0.5;entryY=1;entryDx=0;entryDy=0;exitPerimeter=0;" parent="1" source="lpnK_0vvP0XSjghe2U8a-1" target="lpnK_0vvP0XSjghe2U8a-11" edge="1">
          <mxGeometry width="50" height="50" relative="1" as="geometry">
            <mxPoint x="540" y="320" as="sourcePoint" />
            <mxPoint x="590" y="270" as="targetPoint" />
          </mxGeometry>
        </mxCell>
        <mxCell id="FTU88djpEqcu1WmclJpu-3" value="" style="endArrow=none;html=1;rounded=0;exitX=0.75;exitY=0;exitDx=0;exitDy=0;entryX=0.5;entryY=1;entryDx=0;entryDy=0;" parent="1" source="lpnK_0vvP0XSjghe2U8a-1" target="lpnK_0vvP0XSjghe2U8a-4" edge="1">
          <mxGeometry width="50" height="50" relative="1" as="geometry">
            <mxPoint x="200" y="230" as="sourcePoint" />
            <mxPoint x="250" y="180" as="targetPoint" />
          </mxGeometry>
        </mxCell>
        <mxCell id="FTU88djpEqcu1WmclJpu-4" value="" style="endArrow=none;html=1;rounded=0;exitX=0.5;exitY=0;exitDx=0;exitDy=0;entryX=0.158;entryY=0.997;entryDx=0;entryDy=0;entryPerimeter=0;" parent="1" source="lpnK_0vvP0XSjghe2U8a-10" target="lpnK_0vvP0XSjghe2U8a-1" edge="1">
          <mxGeometry width="50" height="50" relative="1" as="geometry">
            <mxPoint x="120" y="320" as="sourcePoint" />
            <mxPoint x="170" y="270" as="targetPoint" />
          </mxGeometry>
        </mxCell>
        <mxCell id="FTU88djpEqcu1WmclJpu-5" value="" style="endArrow=none;html=1;rounded=0;exitX=0.5;exitY=0;exitDx=0;exitDy=0;entryX=0.75;entryY=1;entryDx=0;entryDy=0;" parent="1" source="lpnK_0vvP0XSjghe2U8a-8" target="lpnK_0vvP0XSjghe2U8a-1" edge="1">
          <mxGeometry width="50" height="50" relative="1" as="geometry">
            <mxPoint x="190" y="310" as="sourcePoint" />
            <mxPoint x="240" y="260" as="targetPoint" />
          </mxGeometry>
        </mxCell>
        <mxCell id="FTU88djpEqcu1WmclJpu-7" value="" style="endArrow=none;html=1;rounded=0;entryX=0;entryY=0.5;entryDx=0;entryDy=0;exitX=1;exitY=0.5;exitDx=0;exitDy=0;" parent="1" source="lpnK_0vvP0XSjghe2U8a-1" target="lpnK_0vvP0XSjghe2U8a-19" edge="1">
          <mxGeometry width="50" height="50" relative="1" as="geometry">
            <mxPoint x="250" y="250" as="sourcePoint" />
            <mxPoint x="300" y="200" as="targetPoint" />
          </mxGeometry>
        </mxCell>
        <mxCell id="FTU88djpEqcu1WmclJpu-9" value="" style="endArrow=none;html=1;rounded=0;exitX=1;exitY=0.5;exitDx=0;exitDy=0;entryX=0;entryY=0.5;entryDx=0;entryDy=0;" parent="1" source="lpnK_0vvP0XSjghe2U8a-19" target="lpnK_0vvP0XSjghe2U8a-2" edge="1">
          <mxGeometry width="50" height="50" relative="1" as="geometry">
            <mxPoint x="370" y="250" as="sourcePoint" />
            <mxPoint x="420" y="200" as="targetPoint" />
          </mxGeometry>
        </mxCell>
        <mxCell id="FTU88djpEqcu1WmclJpu-11" value="" style="endArrow=none;html=1;rounded=0;exitX=1;exitY=0.25;exitDx=0;exitDy=0;entryX=0.077;entryY=0.716;entryDx=0;entryDy=0;entryPerimeter=0;" parent="1" source="lpnK_0vvP0XSjghe2U8a-2" target="JMcGNKBuhodXfzZp6lYc-4" edge="1">
          <mxGeometry width="50" height="50" relative="1" as="geometry">
            <mxPoint x="400" y="220" as="sourcePoint" />
            <mxPoint x="450" y="170" as="targetPoint" />
          </mxGeometry>
        </mxCell>
        <mxCell id="FTU88djpEqcu1WmclJpu-12" value="" style="endArrow=none;html=1;rounded=0;exitX=0.5;exitY=0;exitDx=0;exitDy=0;entryX=0.5;entryY=1;entryDx=0;entryDy=0;" parent="1" source="lpnK_0vvP0XSjghe2U8a-2" target="JMcGNKBuhodXfzZp6lYc-6" edge="1">
          <mxGeometry width="50" height="50" relative="1" as="geometry">
            <mxPoint x="440" y="200" as="sourcePoint" />
            <mxPoint x="490" y="150" as="targetPoint" />
          </mxGeometry>
        </mxCell>
        <mxCell id="FTU88djpEqcu1WmclJpu-14" value="" style="endArrow=none;html=1;rounded=0;exitX=0.5;exitY=0;exitDx=0;exitDy=0;entryX=0.5;entryY=1;entryDx=0;entryDy=0;" parent="1" source="JMcGNKBuhodXfzZp6lYc-6" target="JMcGNKBuhodXfzZp6lYc-21" edge="1">
          <mxGeometry width="50" height="50" relative="1" as="geometry">
            <mxPoint x="440" y="50" as="sourcePoint" />
            <mxPoint x="490" as="targetPoint" />
          </mxGeometry>
        </mxCell>
        <mxCell id="FTU88djpEqcu1WmclJpu-15" value="" style="endArrow=none;html=1;rounded=0;exitX=0;exitY=0;exitDx=0;exitDy=0;entryX=0.644;entryY=1.01;entryDx=0;entryDy=0;entryPerimeter=0;" parent="1" source="JMcGNKBuhodXfzZp6lYc-21" target="JMcGNKBuhodXfzZp6lYc-24" edge="1">
          <mxGeometry width="50" height="50" relative="1" as="geometry">
            <mxPoint x="380" y="-70" as="sourcePoint" />
            <mxPoint x="430" y="-120" as="targetPoint" />
          </mxGeometry>
        </mxCell>
        <mxCell id="FTU88djpEqcu1WmclJpu-16" value="" style="endArrow=none;html=1;rounded=0;entryX=0.5;entryY=1;entryDx=0;entryDy=0;" parent="1" target="JMcGNKBuhodXfzZp6lYc-26" edge="1">
          <mxGeometry width="50" height="50" relative="1" as="geometry">
            <mxPoint x="430" y="-61" as="sourcePoint" />
            <mxPoint x="480" y="-120" as="targetPoint" />
          </mxGeometry>
        </mxCell>
        <mxCell id="FTU88djpEqcu1WmclJpu-17" value="" style="endArrow=none;html=1;rounded=0;exitX=0.897;exitY=-0.003;exitDx=0;exitDy=0;entryX=0.35;entryY=0.97;entryDx=0;entryDy=0;entryPerimeter=0;exitPerimeter=0;" parent="1" source="JMcGNKBuhodXfzZp6lYc-21" target="JMcGNKBuhodXfzZp6lYc-25" edge="1">
          <mxGeometry width="50" height="50" relative="1" as="geometry">
            <mxPoint x="480" y="-70" as="sourcePoint" />
            <mxPoint x="530" y="-120" as="targetPoint" />
          </mxGeometry>
        </mxCell>
        <mxCell id="FTU88djpEqcu1WmclJpu-18" value="" style="endArrow=none;html=1;rounded=0;exitX=0.5;exitY=0;exitDx=0;exitDy=0;entryX=0.5;entryY=1;entryDx=0;entryDy=0;" parent="1" source="JMcGNKBuhodXfzZp6lYc-9" target="lpnK_0vvP0XSjghe2U8a-2" edge="1">
          <mxGeometry width="50" height="50" relative="1" as="geometry">
            <mxPoint x="440" y="320" as="sourcePoint" />
            <mxPoint x="490" y="270" as="targetPoint" />
          </mxGeometry>
        </mxCell>
        <mxCell id="FTU88djpEqcu1WmclJpu-19" value="" style="endArrow=none;html=1;rounded=0;exitX=0.5;exitY=0;exitDx=0;exitDy=0;entryX=0.5;entryY=1;entryDx=0;entryDy=0;" parent="1" source="JMcGNKBuhodXfzZp6lYc-11" target="JMcGNKBuhodXfzZp6lYc-9" edge="1">
          <mxGeometry width="50" height="50" relative="1" as="geometry">
            <mxPoint x="470" y="420" as="sourcePoint" />
            <mxPoint x="520" y="370" as="targetPoint" />
          </mxGeometry>
        </mxCell>
        <mxCell id="FTU88djpEqcu1WmclJpu-20" value="" style="endArrow=none;html=1;rounded=0;exitX=1;exitY=0.5;exitDx=0;exitDy=0;entryX=0;entryY=0.5;entryDx=0;entryDy=0;" parent="1" source="JMcGNKBuhodXfzZp6lYc-11" target="JMcGNKBuhodXfzZp6lYc-18" edge="1">
          <mxGeometry width="50" height="50" relative="1" as="geometry">
            <mxPoint x="540" y="480" as="sourcePoint" />
            <mxPoint x="590" y="430" as="targetPoint" />
          </mxGeometry>
        </mxCell>
        <mxCell id="FTU88djpEqcu1WmclJpu-21" value="" style="endArrow=none;html=1;rounded=0;exitX=1;exitY=0.5;exitDx=0;exitDy=0;entryX=0;entryY=0.75;entryDx=0;entryDy=0;" parent="1" source="JMcGNKBuhodXfzZp6lYc-35" target="JMcGNKBuhodXfzZp6lYc-11" edge="1">
          <mxGeometry width="50" height="50" relative="1" as="geometry">
            <mxPoint x="340" y="470" as="sourcePoint" />
            <mxPoint x="390" y="420" as="targetPoint" />
          </mxGeometry>
        </mxCell>
        <mxCell id="FTU88djpEqcu1WmclJpu-22" value="" style="endArrow=none;html=1;rounded=0;exitX=0.5;exitY=0;exitDx=0;exitDy=0;entryX=0.25;entryY=1;entryDx=0;entryDy=0;" parent="1" source="JMcGNKBuhodXfzZp6lYc-34" target="JMcGNKBuhodXfzZp6lYc-11" edge="1">
          <mxGeometry width="50" height="50" relative="1" as="geometry">
            <mxPoint x="370" y="510" as="sourcePoint" />
            <mxPoint x="420" y="460" as="targetPoint" />
          </mxGeometry>
        </mxCell>
        <mxCell id="FTU88djpEqcu1WmclJpu-23" value="" style="endArrow=none;html=1;rounded=0;exitX=0.5;exitY=0;exitDx=0;exitDy=0;entryX=0.75;entryY=1;entryDx=0;entryDy=0;" parent="1" source="JMcGNKBuhodXfzZp6lYc-15" target="JMcGNKBuhodXfzZp6lYc-11" edge="1">
          <mxGeometry width="50" height="50" relative="1" as="geometry">
            <mxPoint x="410" y="520" as="sourcePoint" />
            <mxPoint x="460" y="470" as="targetPoint" />
          </mxGeometry>
        </mxCell>
        <mxCell id="FTU88djpEqcu1WmclJpu-24" value="" style="endArrow=none;html=1;rounded=0;exitX=0.5;exitY=0;exitDx=0;exitDy=0;entryX=1;entryY=1;entryDx=0;entryDy=0;" parent="1" source="JMcGNKBuhodXfzZp6lYc-14" target="JMcGNKBuhodXfzZp6lYc-11" edge="1">
          <mxGeometry width="50" height="50" relative="1" as="geometry">
            <mxPoint x="470" y="520" as="sourcePoint" />
            <mxPoint x="520" y="470" as="targetPoint" />
          </mxGeometry>
        </mxCell>
        <mxCell id="FTU88djpEqcu1WmclJpu-26" value="" style="endArrow=none;html=1;rounded=0;exitX=0.5;exitY=0;exitDx=0;exitDy=0;entryX=0.25;entryY=1;entryDx=0;entryDy=0;" parent="1" source="JMcGNKBuhodXfzZp6lYc-18" target="JMcGNKBuhodXfzZp6lYc-39" edge="1">
          <mxGeometry width="50" height="50" relative="1" as="geometry">
            <mxPoint x="630" y="380" as="sourcePoint" />
            <mxPoint x="680" y="330" as="targetPoint" />
            <Array as="points">
              <mxPoint x="600" y="360" />
              <mxPoint x="700" y="360" />
              <mxPoint x="845" y="360" />
            </Array>
          </mxGeometry>
        </mxCell>
        <mxCell id="FTU88djpEqcu1WmclJpu-28" value="" style="endArrow=none;html=1;rounded=0;exitX=0.5;exitY=0;exitDx=0;exitDy=0;entryX=0.5;entryY=1;entryDx=0;entryDy=0;" parent="1" source="JMcGNKBuhodXfzZp6lYc-46" target="JMcGNKBuhodXfzZp6lYc-39" edge="1">
          <mxGeometry width="50" height="50" relative="1" as="geometry">
            <mxPoint x="810" y="320" as="sourcePoint" />
            <mxPoint x="860" y="270" as="targetPoint" />
          </mxGeometry>
        </mxCell>
        <mxCell id="FTU88djpEqcu1WmclJpu-29" value="" style="endArrow=none;html=1;rounded=0;exitX=0.5;exitY=0;exitDx=0;exitDy=0;entryX=0.5;entryY=1;entryDx=0;entryDy=0;" parent="1" source="JMcGNKBuhodXfzZp6lYc-45" target="JMcGNKBuhodXfzZp6lYc-46" edge="1">
          <mxGeometry width="50" height="50" relative="1" as="geometry">
            <mxPoint x="690" y="450" as="sourcePoint" />
            <mxPoint x="750" y="390" as="targetPoint" />
          </mxGeometry>
        </mxCell>
        <mxCell id="FTU88djpEqcu1WmclJpu-30" value="" style="endArrow=none;html=1;rounded=0;exitX=0.5;exitY=0;exitDx=0;exitDy=0;entryX=0.164;entryY=0.997;entryDx=0;entryDy=0;entryPerimeter=0;" parent="1" source="JMcGNKBuhodXfzZp6lYc-49" target="JMcGNKBuhodXfzZp6lYc-45" edge="1">
          <mxGeometry width="50" height="50" relative="1" as="geometry">
            <mxPoint x="700" y="550" as="sourcePoint" />
            <mxPoint x="750" y="500" as="targetPoint" />
          </mxGeometry>
        </mxCell>
        <mxCell id="FTU88djpEqcu1WmclJpu-31" value="" style="endArrow=none;html=1;rounded=0;exitX=0.5;exitY=0;exitDx=0;exitDy=0;entryX=0.75;entryY=1;entryDx=0;entryDy=0;" parent="1" source="JMcGNKBuhodXfzZp6lYc-50" target="JMcGNKBuhodXfzZp6lYc-45" edge="1">
          <mxGeometry width="50" height="50" relative="1" as="geometry">
            <mxPoint x="770" y="540" as="sourcePoint" />
            <mxPoint x="770" y="530" as="targetPoint" />
          </mxGeometry>
        </mxCell>
        <mxCell id="FTU88djpEqcu1WmclJpu-32" value="" style="endArrow=none;html=1;rounded=0;exitX=0.317;exitY=0.01;exitDx=0;exitDy=0;exitPerimeter=0;entryX=1;entryY=1;entryDx=0;entryDy=0;" parent="1" source="JMcGNKBuhodXfzZp6lYc-43" target="JMcGNKBuhodXfzZp6lYc-39" edge="1">
          <mxGeometry width="50" height="50" relative="1" as="geometry">
            <mxPoint x="870" y="310" as="sourcePoint" />
            <mxPoint x="920" y="260" as="targetPoint" />
          </mxGeometry>
        </mxCell>
        <mxCell id="FTU88djpEqcu1WmclJpu-33" value="" style="endArrow=none;html=1;rounded=0;exitX=1;exitY=0.5;exitDx=0;exitDy=0;entryX=0;entryY=0.5;entryDx=0;entryDy=0;" parent="1" source="JMcGNKBuhodXfzZp6lYc-39" target="JMcGNKBuhodXfzZp6lYc-75" edge="1">
          <mxGeometry width="50" height="50" relative="1" as="geometry">
            <mxPoint x="910" y="290" as="sourcePoint" />
            <mxPoint x="960" y="240" as="targetPoint" />
          </mxGeometry>
        </mxCell>
        <mxCell id="FTU88djpEqcu1WmclJpu-34" value="" style="endArrow=none;html=1;rounded=0;exitX=1;exitY=0.75;exitDx=0;exitDy=0;entryX=0;entryY=0;entryDx=0;entryDy=0;" parent="1" source="JMcGNKBuhodXfzZp6lYc-39" target="JMcGNKBuhodXfzZp6lYc-76" edge="1">
          <mxGeometry width="50" height="50" relative="1" as="geometry">
            <mxPoint x="930" y="310" as="sourcePoint" />
            <mxPoint x="980" y="260" as="targetPoint" />
          </mxGeometry>
        </mxCell>
        <mxCell id="FTU88djpEqcu1WmclJpu-36" value="" style="endArrow=none;html=1;rounded=0;exitX=1;exitY=0;exitDx=0;exitDy=0;entryX=0;entryY=1;entryDx=0;entryDy=0;" parent="1" source="JMcGNKBuhodXfzZp6lYc-39" target="JMcGNKBuhodXfzZp6lYc-73" edge="1">
          <mxGeometry width="50" height="50" relative="1" as="geometry">
            <mxPoint x="910" y="250" as="sourcePoint" />
            <mxPoint x="960" y="200" as="targetPoint" />
          </mxGeometry>
        </mxCell>
        <mxCell id="FTU88djpEqcu1WmclJpu-37" value="" style="endArrow=none;html=1;rounded=0;exitX=0;exitY=0.25;exitDx=0;exitDy=0;entryX=1;entryY=0.5;entryDx=0;entryDy=0;" parent="1" source="JMcGNKBuhodXfzZp6lYc-39" target="JMcGNKBuhodXfzZp6lYc-41" edge="1">
          <mxGeometry width="50" height="50" relative="1" as="geometry">
            <mxPoint x="660" y="220" as="sourcePoint" />
            <mxPoint x="710" y="170" as="targetPoint" />
          </mxGeometry>
        </mxCell>
        <mxCell id="FTU88djpEqcu1WmclJpu-38" value="" style="endArrow=none;html=1;rounded=0;exitX=1;exitY=0.5;exitDx=0;exitDy=0;entryX=0;entryY=1;entryDx=0;entryDy=0;" parent="1" source="JMcGNKBuhodXfzZp6lYc-77" target="JMcGNKBuhodXfzZp6lYc-39" edge="1">
          <mxGeometry width="50" height="50" relative="1" as="geometry">
            <mxPoint x="660" y="310" as="sourcePoint" />
            <mxPoint x="710" y="260" as="targetPoint" />
          </mxGeometry>
        </mxCell>
        <mxCell id="FTU88djpEqcu1WmclJpu-39" value="" style="endArrow=none;html=1;rounded=0;exitX=0.5;exitY=0;exitDx=0;exitDy=0;entryX=0.5;entryY=1;entryDx=0;entryDy=0;" parent="1" source="JMcGNKBuhodXfzZp6lYc-69" target="JMcGNKBuhodXfzZp6lYc-70" edge="1">
          <mxGeometry width="50" height="50" relative="1" as="geometry">
            <mxPoint x="680" y="17.5" as="sourcePoint" />
            <mxPoint x="690" y="-12.5" as="targetPoint" />
          </mxGeometry>
        </mxCell>
        <mxCell id="FTU88djpEqcu1WmclJpu-40" value="" style="endArrow=none;html=1;rounded=0;exitX=1;exitY=0.5;exitDx=0;exitDy=0;entryX=0;entryY=0.5;entryDx=0;entryDy=0;" parent="1" source="JMcGNKBuhodXfzZp6lYc-69" target="JMcGNKBuhodXfzZp6lYc-55" edge="1">
          <mxGeometry width="50" height="50" relative="1" as="geometry">
            <mxPoint x="750" y="67.5" as="sourcePoint" />
            <mxPoint x="770" y="57.5" as="targetPoint" />
          </mxGeometry>
        </mxCell>
        <mxCell id="FTU88djpEqcu1WmclJpu-41" value="" style="endArrow=none;html=1;rounded=0;exitX=0.5;exitY=0;exitDx=0;exitDy=0;entryX=0.5;entryY=1;entryDx=0;entryDy=0;" parent="1" source="JMcGNKBuhodXfzZp6lYc-60" target="JMcGNKBuhodXfzZp6lYc-55" edge="1">
          <mxGeometry width="50" height="50" relative="1" as="geometry">
            <mxPoint x="820" y="110" as="sourcePoint" />
            <mxPoint x="870" y="60" as="targetPoint" />
          </mxGeometry>
        </mxCell>
        <mxCell id="FTU88djpEqcu1WmclJpu-42" value="" style="endArrow=none;html=1;rounded=0;exitX=0.5;exitY=0;exitDx=0;exitDy=0;entryX=0.5;entryY=1;entryDx=0;entryDy=0;" parent="1" source="JMcGNKBuhodXfzZp6lYc-39" target="JMcGNKBuhodXfzZp6lYc-60" edge="1">
          <mxGeometry width="50" height="50" relative="1" as="geometry">
            <mxPoint x="820" y="220" as="sourcePoint" />
            <mxPoint x="870" y="170" as="targetPoint" />
          </mxGeometry>
        </mxCell>
        <mxCell id="FTU88djpEqcu1WmclJpu-43" value="" style="endArrow=none;html=1;rounded=0;exitX=0.75;exitY=0;exitDx=0;exitDy=0;entryX=0;entryY=1;entryDx=0;entryDy=0;" parent="1" source="JMcGNKBuhodXfzZp6lYc-55" target="JMcGNKBuhodXfzZp6lYc-86" edge="1">
          <mxGeometry width="50" height="50" relative="1" as="geometry">
            <mxPoint x="860" y="20" as="sourcePoint" />
            <mxPoint x="910" y="-30" as="targetPoint" />
          </mxGeometry>
        </mxCell>
        <mxCell id="FTU88djpEqcu1WmclJpu-44" value="" style="endArrow=none;html=1;rounded=0;exitX=0.997;exitY=0.142;exitDx=0;exitDy=0;exitPerimeter=0;entryX=0;entryY=1;entryDx=0;entryDy=0;" parent="1" source="JMcGNKBuhodXfzZp6lYc-55" target="JMcGNKBuhodXfzZp6lYc-87" edge="1">
          <mxGeometry width="50" height="50" relative="1" as="geometry">
            <mxPoint x="890" y="30" as="sourcePoint" />
            <mxPoint x="990" y="5" as="targetPoint" />
          </mxGeometry>
        </mxCell>
        <mxCell id="FTU88djpEqcu1WmclJpu-45" value="" style="endArrow=none;html=1;rounded=0;exitX=1;exitY=0.75;exitDx=0;exitDy=0;entryX=0;entryY=0.5;entryDx=0;entryDy=0;" parent="1" source="JMcGNKBuhodXfzZp6lYc-55" target="JMcGNKBuhodXfzZp6lYc-88" edge="1">
          <mxGeometry width="50" height="50" relative="1" as="geometry">
            <mxPoint x="940" y="80" as="sourcePoint" />
            <mxPoint x="1030" as="targetPoint" />
          </mxGeometry>
        </mxCell>
        <mxCell id="FTU88djpEqcu1WmclJpu-46" value="" style="endArrow=none;html=1;rounded=0;exitX=1;exitY=1;exitDx=0;exitDy=0;entryX=0;entryY=0;entryDx=0;entryDy=0;" parent="1" source="JMcGNKBuhodXfzZp6lYc-55" target="JMcGNKBuhodXfzZp6lYc-89" edge="1">
          <mxGeometry width="50" height="50" relative="1" as="geometry">
            <mxPoint x="850" y="100" as="sourcePoint" />
            <mxPoint x="970" y="90" as="targetPoint" />
          </mxGeometry>
        </mxCell>
        <mxCell id="FTU88djpEqcu1WmclJpu-49" value="" style="endArrow=none;html=1;rounded=0;exitX=0;exitY=0;exitDx=0;exitDy=0;entryX=1;entryY=1;entryDx=0;entryDy=0;" parent="1" source="JMcGNKBuhodXfzZp6lYc-56" target="JMcGNKBuhodXfzZp6lYc-94" edge="1">
          <mxGeometry width="50" height="50" relative="1" as="geometry">
            <mxPoint x="785" y="-250" as="sourcePoint" />
            <mxPoint x="835" y="-300" as="targetPoint" />
          </mxGeometry>
        </mxCell>
        <mxCell id="FTU88djpEqcu1WmclJpu-50" value="" style="endArrow=none;html=1;rounded=0;exitX=0.25;exitY=0;exitDx=0;exitDy=0;entryX=0.5;entryY=1;entryDx=0;entryDy=0;" parent="1" source="JMcGNKBuhodXfzZp6lYc-56" target="JMcGNKBuhodXfzZp6lYc-95" edge="1">
          <mxGeometry width="50" height="50" relative="1" as="geometry">
            <mxPoint x="825" y="-260" as="sourcePoint" />
            <mxPoint x="875" y="-310" as="targetPoint" />
          </mxGeometry>
        </mxCell>
        <mxCell id="FTU88djpEqcu1WmclJpu-51" value="" style="endArrow=none;html=1;rounded=0;exitX=0.5;exitY=0;exitDx=0;exitDy=0;entryX=0.361;entryY=0.983;entryDx=0;entryDy=0;entryPerimeter=0;" parent="1" source="JMcGNKBuhodXfzZp6lYc-56" target="JMcGNKBuhodXfzZp6lYc-96" edge="1">
          <mxGeometry width="50" height="50" relative="1" as="geometry">
            <mxPoint x="875" y="-270" as="sourcePoint" />
            <mxPoint x="925" y="-320" as="targetPoint" />
          </mxGeometry>
        </mxCell>
        <mxCell id="FTU88djpEqcu1WmclJpu-52" value="" style="endArrow=none;html=1;rounded=0;exitX=1;exitY=0;exitDx=0;exitDy=0;entryX=0;entryY=1;entryDx=0;entryDy=0;" parent="1" source="JMcGNKBuhodXfzZp6lYc-56" target="JMcGNKBuhodXfzZp6lYc-97" edge="1">
          <mxGeometry width="50" height="50" relative="1" as="geometry">
            <mxPoint x="915" y="-260" as="sourcePoint" />
            <mxPoint x="965" y="-310" as="targetPoint" />
          </mxGeometry>
        </mxCell>
        <mxCell id="FTU88djpEqcu1WmclJpu-53" value="" style="endArrow=none;html=1;rounded=0;exitX=0.5;exitY=0;exitDx=0;exitDy=0;entryX=0.5;entryY=1;entryDx=0;entryDy=0;" parent="1" source="JMcGNKBuhodXfzZp6lYc-57" target="JMcGNKBuhodXfzZp6lYc-56" edge="1">
          <mxGeometry width="50" height="50" relative="1" as="geometry">
            <mxPoint x="730" y="-150" as="sourcePoint" />
            <mxPoint x="780" y="-200" as="targetPoint" />
          </mxGeometry>
        </mxCell>
        <mxCell id="FTU88djpEqcu1WmclJpu-54" value="" style="endArrow=none;html=1;rounded=0;exitX=0.5;exitY=0;exitDx=0;exitDy=0;entryX=0.5;entryY=1;entryDx=0;entryDy=0;" parent="1" source="JMcGNKBuhodXfzZp6lYc-55" target="JMcGNKBuhodXfzZp6lYc-57" edge="1">
          <mxGeometry width="50" height="50" relative="1" as="geometry">
            <mxPoint x="820" y="-20" as="sourcePoint" />
            <mxPoint x="870" y="-70" as="targetPoint" />
          </mxGeometry>
        </mxCell>
        <mxCell id="FTU88djpEqcu1WmclJpu-55" value="фио" style="ellipse;whiteSpace=wrap;html=1;rounded=0;" parent="1" vertex="1">
          <mxGeometry x="265" y="-95" width="60" height="50" as="geometry" />
        </mxCell>
        <mxCell id="FTU88djpEqcu1WmclJpu-57" value="" style="endArrow=none;html=1;rounded=0;exitX=0;exitY=0.5;exitDx=0;exitDy=0;entryX=1;entryY=1;entryDx=0;entryDy=0;" parent="1" source="JMcGNKBuhodXfzZp6lYc-21" target="FTU88djpEqcu1WmclJpu-55" edge="1">
          <mxGeometry width="50" height="50" relative="1" as="geometry">
            <mxPoint x="390" y="-50" as="sourcePoint" />
            <mxPoint x="368" y="-79" as="targetPoint" />
            <Array as="points">
              <mxPoint x="350" y="-40" />
            </Array>
          </mxGeometry>
        </mxCell>
        <mxCell id="FTU88djpEqcu1WmclJpu-59" value="id корзины" style="ellipse;whiteSpace=wrap;html=1;rounded=0;" parent="1" vertex="1">
          <mxGeometry x="640" y="-145" width="60" height="50" as="geometry" />
        </mxCell>
        <mxCell id="FTU88djpEqcu1WmclJpu-60" value="" style="endArrow=none;html=1;rounded=0;exitX=0.25;exitY=0;exitDx=0;exitDy=0;entryX=0.5;entryY=1;entryDx=0;entryDy=0;" parent="1" source="JMcGNKBuhodXfzZp6lYc-70" target="FTU88djpEqcu1WmclJpu-59" edge="1">
          <mxGeometry width="50" height="50" relative="1" as="geometry">
            <mxPoint x="710" y="-82.5" as="sourcePoint" />
            <mxPoint x="723" y="-114.5" as="targetPoint" />
          </mxGeometry>
        </mxCell>
        <mxCell id="DIwkbvNEG6C-WmciL7d0-2" value="обеспечивает" style="rhombus;whiteSpace=wrap;html=1;rounded=0;" parent="1" vertex="1">
          <mxGeometry x="510" y="20" width="100" height="80" as="geometry" />
        </mxCell>
        <mxCell id="DIwkbvNEG6C-WmciL7d0-4" value="" style="endArrow=none;html=1;rounded=0;exitX=1;exitY=0.5;exitDx=0;exitDy=0;entryX=0.5;entryY=0;entryDx=0;entryDy=0;" parent="1" source="JMcGNKBuhodXfzZp6lYc-21" target="DIwkbvNEG6C-WmciL7d0-2" edge="1">
          <mxGeometry width="50" height="50" relative="1" as="geometry">
            <mxPoint x="540" y="-30" as="sourcePoint" />
            <mxPoint x="553" y="-62" as="targetPoint" />
            <Array as="points">
              <mxPoint x="560" y="-30" />
            </Array>
          </mxGeometry>
        </mxCell>
        <mxCell id="DIwkbvNEG6C-WmciL7d0-5" value="" style="endArrow=none;html=1;rounded=0;exitX=0.5;exitY=1;exitDx=0;exitDy=0;entryX=0.25;entryY=1;entryDx=0;entryDy=0;" parent="1" source="DIwkbvNEG6C-WmciL7d0-2" target="JMcGNKBuhodXfzZp6lYc-55" edge="1">
          <mxGeometry width="50" height="50" relative="1" as="geometry">
            <mxPoint x="583" y="88" as="sourcePoint" />
            <mxPoint x="570" y="120" as="targetPoint" />
            <Array as="points">
              <mxPoint x="560" y="120" />
              <mxPoint x="845" y="120" />
            </Array>
          </mxGeometry>
        </mxCell>
        <mxCell id="DIwkbvNEG6C-WmciL7d0-6" value="1" style="text;html=1;align=center;verticalAlign=middle;resizable=0;points=[];autosize=1;strokeColor=none;fillColor=none;" parent="1" vertex="1">
          <mxGeometry x="500" y="-30" width="30" height="30" as="geometry" />
        </mxCell>
        <mxCell id="DIwkbvNEG6C-WmciL7d0-7" value="N" style="text;html=1;align=center;verticalAlign=middle;resizable=0;points=[];autosize=1;strokeColor=none;fillColor=none;" parent="1" vertex="1">
          <mxGeometry x="815" y="81" width="30" height="30" as="geometry" />
        </mxCell>
        <mxCell id="DIwkbvNEG6C-WmciL7d0-8" value="доставляет" style="rhombus;whiteSpace=wrap;html=1;rounded=0;" parent="1" vertex="1">
          <mxGeometry x="510" y="-240" width="100" height="80" as="geometry" />
        </mxCell>
        <mxCell id="DIwkbvNEG6C-WmciL7d0-9" value="" style="endArrow=none;html=1;rounded=0;exitX=1;exitY=0.25;exitDx=0;exitDy=0;entryX=0.5;entryY=1;entryDx=0;entryDy=0;" parent="1" source="JMcGNKBuhodXfzZp6lYc-21" target="DIwkbvNEG6C-WmciL7d0-8" edge="1">
          <mxGeometry width="50" height="50" relative="1" as="geometry">
            <mxPoint x="550" y="-60" as="sourcePoint" />
            <mxPoint x="563" y="-92" as="targetPoint" />
            <Array as="points">
              <mxPoint x="560" y="-45" />
              <mxPoint x="560" y="-120" />
              <mxPoint x="560" y="-150" />
            </Array>
          </mxGeometry>
        </mxCell>
        <mxCell id="DIwkbvNEG6C-WmciL7d0-10" value="" style="endArrow=none;html=1;rounded=0;exitX=1;exitY=0.5;exitDx=0;exitDy=0;entryX=0.25;entryY=0;entryDx=0;entryDy=0;" parent="1" source="DIwkbvNEG6C-WmciL7d0-8" target="JMcGNKBuhodXfzZp6lYc-55" edge="1">
          <mxGeometry width="50" height="50" relative="1" as="geometry">
            <mxPoint x="710" y="-180" as="sourcePoint" />
            <mxPoint x="790" y="-160" as="targetPoint" />
            <Array as="points">
              <mxPoint x="680" y="-200" />
              <mxPoint x="680" y="-165" />
              <mxPoint x="790" y="-165" />
              <mxPoint x="790" y="-40" />
              <mxPoint x="845" y="-40" />
            </Array>
          </mxGeometry>
        </mxCell>
        <mxCell id="DIwkbvNEG6C-WmciL7d0-11" value="1" style="text;html=1;align=center;verticalAlign=middle;resizable=0;points=[];autosize=1;strokeColor=none;fillColor=none;" parent="1" vertex="1">
          <mxGeometry x="501" y="-77" width="30" height="30" as="geometry" />
        </mxCell>
        <mxCell id="DIwkbvNEG6C-WmciL7d0-12" value="N" style="text;html=1;align=center;verticalAlign=middle;resizable=0;points=[];autosize=1;strokeColor=none;fillColor=none;" parent="1" vertex="1">
          <mxGeometry x="814" y="-11" width="30" height="30" as="geometry" />
        </mxCell>
        <mxCell id="DIwkbvNEG6C-WmciL7d0-14" value="1" style="text;html=1;align=center;verticalAlign=middle;resizable=0;points=[];autosize=1;strokeColor=none;fillColor=none;" parent="1" vertex="1">
          <mxGeometry x="875" y="428" width="30" height="30" as="geometry" />
        </mxCell>
        <mxCell id="DIwkbvNEG6C-WmciL7d0-15" value="N" style="text;html=1;align=center;verticalAlign=middle;resizable=0;points=[];autosize=1;strokeColor=none;fillColor=none;" parent="1" vertex="1">
          <mxGeometry x="875" y="301" width="30" height="30" as="geometry" />
        </mxCell>
        <mxCell id="DIwkbvNEG6C-WmciL7d0-16" value="1" style="text;html=1;align=center;verticalAlign=middle;resizable=0;points=[];autosize=1;strokeColor=none;fillColor=none;" parent="1" vertex="1">
          <mxGeometry x="703" y="-13" width="30" height="30" as="geometry" />
        </mxCell>
        <mxCell id="DIwkbvNEG6C-WmciL7d0-17" value="1" style="text;html=1;align=center;verticalAlign=middle;resizable=0;points=[];autosize=1;strokeColor=none;fillColor=none;" parent="1" vertex="1">
          <mxGeometry x="785" y="50" width="30" height="30" as="geometry" />
        </mxCell>
        <mxCell id="DIwkbvNEG6C-WmciL7d0-18" value="1" style="text;html=1;align=center;verticalAlign=middle;resizable=0;points=[];autosize=1;strokeColor=none;fillColor=none;" parent="1" vertex="1">
          <mxGeometry x="875" y="-179" width="30" height="30" as="geometry" />
        </mxCell>
        <mxCell id="DIwkbvNEG6C-WmciL7d0-19" value="N" style="text;html=1;align=center;verticalAlign=middle;resizable=0;points=[];autosize=1;strokeColor=none;fillColor=none;" parent="1" vertex="1">
          <mxGeometry x="875" y="-10" width="30" height="30" as="geometry" />
        </mxCell>
        <mxCell id="DIwkbvNEG6C-WmciL7d0-20" value="M" style="text;html=1;align=center;verticalAlign=middle;resizable=0;points=[];autosize=1;strokeColor=none;fillColor=none;" parent="1" vertex="1">
          <mxGeometry x="441" y="1" width="30" height="30" as="geometry" />
        </mxCell>
        <mxCell id="DIwkbvNEG6C-WmciL7d0-21" value="N" style="text;html=1;align=center;verticalAlign=middle;resizable=0;points=[];autosize=1;strokeColor=none;fillColor=none;" parent="1" vertex="1">
          <mxGeometry x="440" y="209" width="30" height="30" as="geometry" />
        </mxCell>
        <mxCell id="jLASY1CmglX2z-NNeBHc-2" value="M" style="text;html=1;align=center;verticalAlign=middle;resizable=0;points=[];autosize=1;strokeColor=none;fillColor=none;" parent="1" vertex="1">
          <mxGeometry x="591" y="-28" width="30" height="30" as="geometry" />
        </mxCell>
        <mxCell id="jLASY1CmglX2z-NNeBHc-3" value="N" style="text;html=1;align=center;verticalAlign=middle;resizable=0;points=[];autosize=1;strokeColor=none;fillColor=none;" parent="1" vertex="1">
          <mxGeometry x="839" y="210" width="30" height="30" as="geometry" />
        </mxCell>
        <mxCell id="jLASY1CmglX2z-NNeBHc-4" value="входит" style="rhombus;whiteSpace=wrap;html=1;rounded=0;" parent="1" vertex="1">
          <mxGeometry x="570" y="129" width="100" height="80" as="geometry" />
        </mxCell>
        <mxCell id="jLASY1CmglX2z-NNeBHc-6" value="" style="endArrow=none;html=1;rounded=0;entryX=0;entryY=0.75;entryDx=0;entryDy=0;exitX=0.5;exitY=0;exitDx=0;exitDy=0;" parent="1" source="jLASY1CmglX2z-NNeBHc-4" target="JMcGNKBuhodXfzZp6lYc-70" edge="1">
          <mxGeometry width="50" height="50" relative="1" as="geometry">
            <mxPoint x="620" y="130" as="sourcePoint" />
            <mxPoint x="670" y="80" as="targetPoint" />
            <Array as="points">
              <mxPoint x="620" y="70" />
              <mxPoint x="620" y="10" />
              <mxPoint x="620" y="-27" />
            </Array>
          </mxGeometry>
        </mxCell>
        <mxCell id="jLASY1CmglX2z-NNeBHc-7" value="" style="endArrow=none;html=1;rounded=0;exitX=1;exitY=0.5;exitDx=0;exitDy=0;entryX=0.06;entryY=1.067;entryDx=0;entryDy=0;entryPerimeter=0;" parent="1" source="jLASY1CmglX2z-NNeBHc-4" target="jLASY1CmglX2z-NNeBHc-3" edge="1">
          <mxGeometry width="50" height="50" relative="1" as="geometry">
            <mxPoint x="620" y="130" as="sourcePoint" />
            <mxPoint x="670" y="80" as="targetPoint" />
            <Array as="points">
              <mxPoint x="840" y="169" />
            </Array>
          </mxGeometry>
        </mxCell>
        <mxCell id="C49qstii-sdVUaWnFxgF-2" value="телефон" style="ellipse;whiteSpace=wrap;html=1;rounded=0;" parent="1" vertex="1">
          <mxGeometry x="975" y="-235" width="60" height="50" as="geometry" />
        </mxCell>
        <mxCell id="C49qstii-sdVUaWnFxgF-4" value="" style="endArrow=none;html=1;rounded=0;entryX=1;entryY=0.5;entryDx=0;entryDy=0;exitX=0;exitY=0.5;exitDx=0;exitDy=0;" parent="1" source="C49qstii-sdVUaWnFxgF-2" target="JMcGNKBuhodXfzZp6lYc-56" edge="1">
          <mxGeometry width="50" height="50" relative="1" as="geometry">
            <mxPoint x="970" y="-210" as="sourcePoint" />
            <mxPoint x="830" y="-30" as="targetPoint" />
          </mxGeometry>
        </mxCell>
        <mxCell id="dms2BH9_nooX1XYbl7QO-2" value="сумма" style="ellipse;whiteSpace=wrap;html=1;rounded=0;" parent="1" vertex="1">
          <mxGeometry x="720" y="-140" width="60" height="50" as="geometry" />
        </mxCell>
        <mxCell id="dms2BH9_nooX1XYbl7QO-3" value="количество" style="ellipse;whiteSpace=wrap;html=1;rounded=0;" parent="1" vertex="1">
          <mxGeometry x="740" y="-9" width="70" height="50" as="geometry" />
        </mxCell>
        <mxCell id="dms2BH9_nooX1XYbl7QO-4" value="еденица измерения" style="ellipse;whiteSpace=wrap;html=1;rounded=0;" parent="1" vertex="1">
          <mxGeometry x="570" y="-122.5" width="70" height="50" as="geometry" />
        </mxCell>
        <mxCell id="dms2BH9_nooX1XYbl7QO-6" value="" style="endArrow=none;html=1;rounded=0;exitX=0.5;exitY=1;exitDx=0;exitDy=0;entryX=0.75;entryY=0;entryDx=0;entryDy=0;" parent="1" source="dms2BH9_nooX1XYbl7QO-2" target="JMcGNKBuhodXfzZp6lYc-70" edge="1">
          <mxGeometry width="50" height="50" relative="1" as="geometry">
            <mxPoint x="660" y="-52" as="sourcePoint" />
            <mxPoint x="641" y="-78" as="targetPoint" />
          </mxGeometry>
        </mxCell>
        <mxCell id="dms2BH9_nooX1XYbl7QO-7" value="" style="endArrow=none;html=1;rounded=0;exitX=1;exitY=1;exitDx=0;exitDy=0;entryX=0;entryY=0.5;entryDx=0;entryDy=0;" parent="1" source="dms2BH9_nooX1XYbl7QO-4" target="JMcGNKBuhodXfzZp6lYc-70" edge="1">
          <mxGeometry width="50" height="50" relative="1" as="geometry">
            <mxPoint x="670" y="-42" as="sourcePoint" />
            <mxPoint x="651" y="-68" as="targetPoint" />
          </mxGeometry>
        </mxCell>
        <mxCell id="dms2BH9_nooX1XYbl7QO-8" value="" style="endArrow=none;html=1;rounded=0;exitX=0.5;exitY=0;exitDx=0;exitDy=0;entryX=1;entryY=0.5;entryDx=0;entryDy=0;" parent="1" source="dms2BH9_nooX1XYbl7QO-3" target="JMcGNKBuhodXfzZp6lYc-70" edge="1">
          <mxGeometry width="50" height="50" relative="1" as="geometry">
            <mxPoint x="680" y="-32" as="sourcePoint" />
            <mxPoint x="661" y="-58" as="targetPoint" />
            <Array as="points">
              <mxPoint x="775" y="-42" />
            </Array>
          </mxGeometry>
        </mxCell>
        <mxCell id="dms2BH9_nooX1XYbl7QO-14" value="описание" style="ellipse;whiteSpace=wrap;html=1;rounded=0;" parent="1" vertex="1">
          <mxGeometry x="960" y="559" width="60" height="50" as="geometry" />
        </mxCell>
        <mxCell id="dms2BH9_nooX1XYbl7QO-15" value="" style="endArrow=none;html=1;rounded=0;exitX=0;exitY=0;exitDx=0;exitDy=0;entryX=1;entryY=1;entryDx=0;entryDy=0;" parent="1" source="dms2BH9_nooX1XYbl7QO-14" target="JMcGNKBuhodXfzZp6lYc-45" edge="1">
          <mxGeometry width="50" height="50" relative="1" as="geometry">
            <mxPoint x="920" y="569" as="sourcePoint" />
            <mxPoint x="915" y="530" as="targetPoint" />
          </mxGeometry>
        </mxCell>
        <mxCell id="dms2BH9_nooX1XYbl7QO-17" value="дата" style="ellipse;whiteSpace=wrap;html=1;rounded=0;" parent="1" vertex="1">
          <mxGeometry x="520" y="282" width="60" height="50" as="geometry" />
        </mxCell>
        <mxCell id="dms2BH9_nooX1XYbl7QO-18" value="" style="endArrow=none;html=1;rounded=0;exitX=1;exitY=0.5;exitDx=0;exitDy=0;entryX=0;entryY=0;entryDx=0;entryDy=0;" parent="1" source="lpnK_0vvP0XSjghe2U8a-2" target="dms2BH9_nooX1XYbl7QO-17" edge="1">
          <mxGeometry width="50" height="50" relative="1" as="geometry">
            <mxPoint x="492" y="249" as="sourcePoint" />
            <mxPoint x="507" y="220" as="targetPoint" />
          </mxGeometry>
        </mxCell>
      </root>
    </mxGraphModel>
  </diagram>
  <diagram id="BmIVIRZCHEAGCic-La-D" name="Реляционная схема БД">
    <mxGraphModel dx="1290" dy="1798" grid="1" gridSize="10" guides="1" tooltips="1" connect="1" arrows="1" fold="1" page="1" pageScale="1" pageWidth="827" pageHeight="1169" math="0" shadow="0">
      <root>
        <mxCell id="0" />
        <mxCell id="1" parent="0" />
        <mxCell id="qH8PZ1pTMdyyuZdBrFOD-1" value="Заказ" style="swimlane;whiteSpace=wrap;html=1;" parent="1" vertex="1">
          <mxGeometry x="1010" y="80" width="200" height="200" as="geometry" />
        </mxCell>
        <mxCell id="qH8PZ1pTMdyyuZdBrFOD-2" value="&lt;i&gt;id заказа&lt;br&gt;id сотрудника&lt;br&gt;id курьера&lt;br&gt;сумма&lt;br&gt;статус&lt;br&gt;дата заказа&lt;/i&gt;" style="text;html=1;align=left;verticalAlign=middle;resizable=0;points=[];autosize=1;strokeColor=none;fillColor=none;" parent="qH8PZ1pTMdyyuZdBrFOD-1" vertex="1">
          <mxGeometry x="2" y="22" width="100" height="100" as="geometry" />
        </mxCell>
        <mxCell id="qH8PZ1pTMdyyuZdBrFOD-3" value="Состав поставки" style="swimlane;whiteSpace=wrap;html=1;" parent="1" vertex="1">
          <mxGeometry x="770" y="310" width="200" height="200" as="geometry" />
        </mxCell>
        <mxCell id="499zLrGYbTcshLowuBTz-1" value="&lt;i&gt;id поставки&lt;br&gt;название&lt;br&gt;единица измерения&lt;br&gt;описание&lt;br&gt;количество&lt;/i&gt;" style="text;html=1;align=left;verticalAlign=middle;resizable=0;points=[];autosize=1;strokeColor=none;fillColor=none;" parent="qH8PZ1pTMdyyuZdBrFOD-3" vertex="1">
          <mxGeometry y="21" width="130" height="90" as="geometry" />
        </mxCell>
        <mxCell id="7-tfyNHr8gaODhklRvBK-1" value="Товар" style="swimlane;whiteSpace=wrap;html=1;startSize=23;" parent="1" vertex="1">
          <mxGeometry x="1010" y="310" width="200" height="200" as="geometry" />
        </mxCell>
        <mxCell id="7-tfyNHr8gaODhklRvBK-2" value="&lt;i&gt;id товара&lt;br&gt;id категории&lt;br&gt;название&lt;br&gt;описание&lt;br&gt;адрес хранения&lt;/i&gt;" style="text;html=1;align=left;verticalAlign=middle;resizable=0;points=[];autosize=1;strokeColor=none;fillColor=none;" parent="7-tfyNHr8gaODhklRvBK-1" vertex="1">
          <mxGeometry x="1" y="24" width="110" height="90" as="geometry" />
        </mxCell>
        <mxCell id="9dpD8SkHpj1If7Ysf0vG-1" value="Поставка" style="swimlane;whiteSpace=wrap;html=1;" parent="1" vertex="1">
          <mxGeometry x="770" y="80" width="200" height="200" as="geometry" />
        </mxCell>
        <mxCell id="9dpD8SkHpj1If7Ysf0vG-2" value="&lt;i&gt;id поставки&lt;br&gt;id сотрудника&lt;br&gt;дата&lt;/i&gt;" style="text;html=1;align=left;verticalAlign=middle;resizable=0;points=[];autosize=1;strokeColor=none;fillColor=none;" parent="9dpD8SkHpj1If7Ysf0vG-1" vertex="1">
          <mxGeometry x="3" y="16" width="100" height="60" as="geometry" />
        </mxCell>
        <mxCell id="9dpD8SkHpj1If7Ysf0vG-3" value="Поставщик" style="swimlane;whiteSpace=wrap;html=1;" parent="1" vertex="1">
          <mxGeometry x="530" y="80" width="200" height="200" as="geometry" />
        </mxCell>
        <mxCell id="9dpD8SkHpj1If7Ysf0vG-4" value="&lt;i&gt;id поставщика&lt;br&gt;название компании&lt;br&gt;адрес&lt;br&gt;email&lt;/i&gt;" style="text;html=1;align=left;verticalAlign=middle;resizable=0;points=[];autosize=1;strokeColor=none;fillColor=none;" parent="9dpD8SkHpj1If7Ysf0vG-3" vertex="1">
          <mxGeometry x="2" y="25" width="130" height="70" as="geometry" />
        </mxCell>
        <mxCell id="9dpD8SkHpj1If7Ysf0vG-9" value="Клиент" style="swimlane;whiteSpace=wrap;html=1;" parent="1" vertex="1">
          <mxGeometry x="1010" y="-140" width="200" height="200" as="geometry" />
        </mxCell>
        <mxCell id="9dpD8SkHpj1If7Ysf0vG-10" value="&lt;i&gt;id клиента&lt;br&gt;фио&lt;br&gt;email&lt;br&gt;адрес&lt;br&gt;дата заказа&lt;br&gt;телефон&lt;/i&gt;" style="text;html=1;align=left;verticalAlign=middle;resizable=0;points=[];autosize=1;strokeColor=none;fillColor=none;" parent="9dpD8SkHpj1If7Ysf0vG-9" vertex="1">
          <mxGeometry x="2" y="19" width="90" height="100" as="geometry" />
        </mxCell>
        <mxCell id="WWVGd8EWLiZhIKt7PR18-2" value="" style="endArrow=none;html=1;rounded=0;entryX=0.5;entryY=1;entryDx=0;entryDy=0;exitX=0.5;exitY=0;exitDx=0;exitDy=0;" parent="1" source="qH8PZ1pTMdyyuZdBrFOD-1" target="9dpD8SkHpj1If7Ysf0vG-9" edge="1">
          <mxGeometry width="50" height="50" relative="1" as="geometry">
            <mxPoint x="840" y="160" as="sourcePoint" />
            <mxPoint x="890" y="110" as="targetPoint" />
          </mxGeometry>
        </mxCell>
        <mxCell id="MDISaeV_EQjkZMXcc0bh-1" value="Категория" style="swimlane;whiteSpace=wrap;html=1;startSize=23;" parent="1" vertex="1">
          <mxGeometry x="1010" y="540" width="200" height="200" as="geometry" />
        </mxCell>
        <mxCell id="MDISaeV_EQjkZMXcc0bh-2" value="&lt;div style=&quot;&quot;&gt;&lt;i&gt;id категории&lt;br&gt;&lt;/i&gt;&lt;/div&gt;&lt;div style=&quot;&quot;&gt;&lt;span style=&quot;background-color: initial;&quot;&gt;&lt;i&gt;название&lt;/i&gt;&lt;/span&gt;&lt;/div&gt;&lt;div style=&quot;&quot;&gt;&lt;span style=&quot;background-color: initial;&quot;&gt;&lt;i&gt;описание&lt;/i&gt;&lt;/span&gt;&lt;/div&gt;" style="text;html=1;align=left;verticalAlign=middle;resizable=0;points=[];autosize=1;strokeColor=none;fillColor=none;" parent="MDISaeV_EQjkZMXcc0bh-1" vertex="1">
          <mxGeometry y="24" width="100" height="60" as="geometry" />
        </mxCell>
        <mxCell id="MDISaeV_EQjkZMXcc0bh-3" value="Корзина" style="swimlane;whiteSpace=wrap;html=1;" parent="1" vertex="1">
          <mxGeometry x="1242" y="81" width="200" height="200" as="geometry" />
        </mxCell>
        <mxCell id="MDISaeV_EQjkZMXcc0bh-4" value="&lt;i&gt;id заказа&lt;br&gt;id корзины&lt;br&gt;id товара&lt;br&gt;сумма&lt;br style=&quot;border-color: var(--border-color);&quot;&gt;количество&lt;br&gt;единица измерения&lt;/i&gt;" style="text;html=1;align=left;verticalAlign=middle;resizable=0;points=[];autosize=1;strokeColor=none;fillColor=none;" parent="MDISaeV_EQjkZMXcc0bh-3" vertex="1">
          <mxGeometry x="1" y="18" width="130" height="100" as="geometry" />
        </mxCell>
        <mxCell id="MDISaeV_EQjkZMXcc0bh-5" value="" style="endArrow=none;html=1;rounded=0;entryX=0.5;entryY=1;entryDx=0;entryDy=0;exitX=0.5;exitY=0;exitDx=0;exitDy=0;" parent="1" source="7-tfyNHr8gaODhklRvBK-1" target="qH8PZ1pTMdyyuZdBrFOD-1" edge="1">
          <mxGeometry width="50" height="50" relative="1" as="geometry">
            <mxPoint x="1120" y="90" as="sourcePoint" />
            <mxPoint x="1120" y="70" as="targetPoint" />
          </mxGeometry>
        </mxCell>
        <mxCell id="MDISaeV_EQjkZMXcc0bh-7" value="" style="endArrow=none;html=1;rounded=0;entryX=0.5;entryY=1;entryDx=0;entryDy=0;exitX=0.5;exitY=0;exitDx=0;exitDy=0;" parent="1" source="MDISaeV_EQjkZMXcc0bh-1" target="7-tfyNHr8gaODhklRvBK-1" edge="1">
          <mxGeometry width="50" height="50" relative="1" as="geometry">
            <mxPoint x="1130" y="530" as="sourcePoint" />
            <mxPoint x="1130" y="500" as="targetPoint" />
          </mxGeometry>
        </mxCell>
        <mxCell id="MDISaeV_EQjkZMXcc0bh-8" value="" style="endArrow=none;html=1;rounded=0;exitX=1;exitY=0.5;exitDx=0;exitDy=0;" parent="1" source="qH8PZ1pTMdyyuZdBrFOD-3" edge="1">
          <mxGeometry width="50" height="50" relative="1" as="geometry">
            <mxPoint x="990" y="400" as="sourcePoint" />
            <mxPoint x="1010" y="410" as="targetPoint" />
          </mxGeometry>
        </mxCell>
        <mxCell id="MDISaeV_EQjkZMXcc0bh-13" value="Сотрудник" style="swimlane;whiteSpace=wrap;html=1;" parent="1" vertex="1">
          <mxGeometry x="770" y="-140" width="200" height="200" as="geometry" />
        </mxCell>
        <mxCell id="MDISaeV_EQjkZMXcc0bh-14" value="&lt;i&gt;id сотрудника&lt;br&gt;фио&lt;br&gt;должность &lt;br&gt;email&lt;/i&gt;" style="text;html=1;align=left;verticalAlign=middle;resizable=0;points=[];autosize=1;strokeColor=none;fillColor=none;" parent="MDISaeV_EQjkZMXcc0bh-13" vertex="1">
          <mxGeometry x="1" y="25" width="100" height="70" as="geometry" />
        </mxCell>
        <mxCell id="MDISaeV_EQjkZMXcc0bh-15" value="" style="endArrow=none;html=1;rounded=0;entryX=1;entryY=0.5;entryDx=0;entryDy=0;" parent="1" target="qH8PZ1pTMdyyuZdBrFOD-1" edge="1">
          <mxGeometry width="50" height="50" relative="1" as="geometry">
            <mxPoint x="1242" y="180" as="sourcePoint" />
            <mxPoint x="1220" y="160" as="targetPoint" />
          </mxGeometry>
        </mxCell>
        <mxCell id="MDISaeV_EQjkZMXcc0bh-16" value="" style="endArrow=none;html=1;rounded=0;entryX=0.5;entryY=1;entryDx=0;entryDy=0;exitX=0.5;exitY=0;exitDx=0;exitDy=0;" parent="1" source="qH8PZ1pTMdyyuZdBrFOD-3" target="9dpD8SkHpj1If7Ysf0vG-1" edge="1">
          <mxGeometry width="50" height="50" relative="1" as="geometry">
            <mxPoint x="880" y="290" as="sourcePoint" />
            <mxPoint x="880" y="260" as="targetPoint" />
          </mxGeometry>
        </mxCell>
        <mxCell id="MDISaeV_EQjkZMXcc0bh-17" value="" style="endArrow=none;html=1;rounded=0;" parent="1" edge="1">
          <mxGeometry width="50" height="50" relative="1" as="geometry">
            <mxPoint x="880" y="79" as="sourcePoint" />
            <mxPoint x="880" y="59" as="targetPoint" />
          </mxGeometry>
        </mxCell>
        <mxCell id="MDISaeV_EQjkZMXcc0bh-18" value="" style="endArrow=none;html=1;rounded=0;entryX=1;entryY=0.5;entryDx=0;entryDy=0;exitX=0;exitY=0.5;exitDx=0;exitDy=0;" parent="1" source="9dpD8SkHpj1If7Ysf0vG-1" target="9dpD8SkHpj1If7Ysf0vG-3" edge="1">
          <mxGeometry width="50" height="50" relative="1" as="geometry">
            <mxPoint x="750" y="180" as="sourcePoint" />
            <mxPoint x="750" y="150" as="targetPoint" />
          </mxGeometry>
        </mxCell>
        <mxCell id="EId3vJrBd2PFXztM9sw5-1" value="" style="endArrow=none;html=1;rounded=0;entryX=1;entryY=1;entryDx=0;entryDy=0;exitX=0;exitY=0;exitDx=0;exitDy=0;" parent="1" source="qH8PZ1pTMdyyuZdBrFOD-1" target="MDISaeV_EQjkZMXcc0bh-13" edge="1">
          <mxGeometry width="50" height="50" relative="1" as="geometry">
            <mxPoint x="920" y="150" as="sourcePoint" />
            <mxPoint x="970" y="100" as="targetPoint" />
          </mxGeometry>
        </mxCell>
        <mxCell id="EId3vJrBd2PFXztM9sw5-2" value="" style="endArrow=none;html=1;rounded=0;exitX=1;exitY=0.5;exitDx=0;exitDy=0;entryX=0;entryY=0.5;entryDx=0;entryDy=0;" parent="1" source="MDISaeV_EQjkZMXcc0bh-13" target="9dpD8SkHpj1If7Ysf0vG-9" edge="1">
          <mxGeometry width="50" height="50" relative="1" as="geometry">
            <mxPoint x="920" y="150" as="sourcePoint" />
            <mxPoint x="970" y="100" as="targetPoint" />
          </mxGeometry>
        </mxCell>
        <mxCell id="W2j_eXwHifXErocAwt8D-1" value="" style="endArrow=none;html=1;rounded=0;exitX=1;exitY=0;exitDx=0;exitDy=0;entryX=0;entryY=1;entryDx=0;entryDy=0;" parent="1" source="7-tfyNHr8gaODhklRvBK-1" target="MDISaeV_EQjkZMXcc0bh-3" edge="1">
          <mxGeometry width="50" height="50" relative="1" as="geometry">
            <mxPoint x="1090" y="260" as="sourcePoint" />
            <mxPoint x="1140" y="210" as="targetPoint" />
          </mxGeometry>
        </mxCell>
      </root>
    </mxGraphModel>
  </diagram>
</mxfile>
